<svg width="271" height="73" viewBox="0 0 271 73" fill="none" xmlns="http://www.w3.org/2000/svg">
<path d="M36.39 54.47C26.42 54.47 18.31 46.36 18.31 36.39C18.31 26.42 26.42 18.31 36.39 18.31V18.27L40.09 14.6L36.39 10.93V10.89C36.38 10.89 36.37 10.89 36.35 10.89C22.31 10.91 10.89 22.34 10.89 36.38C10.89 50.44 22.33 61.87 36.38 61.87C50.43 61.87 61.87 50.43 61.87 36.38H54.46C54.47 46.36 46.36 54.47 36.39 54.47Z" fill="#FF632E"/>
<path d="M65.37 36.39C65.37 52.37 52.37 65.37 36.39 65.37C20.41 65.37 7.41 52.37 7.41 36.39C7.41 20.41 20.41 7.41 36.39 7.41L40.13 3.71L36.39 0C16.32 0 0 16.32 0 36.39C0 56.46 16.32 72.78 36.39 72.78C56.46 72.78 72.78 56.46 72.78 36.39H65.37Z" fill="#FF632E"/>
<path d="M36.39 29.2L40.13 25.5L36.39 21.8C28.34 21.8 21.79 28.35 21.79 36.4C21.79 44.45 28.34 51 36.39 51C44.44 51 50.99 44.45 50.99 36.4H43.58C43.58 40.36 40.35 43.59 36.39 43.59C32.43 43.59 29.2 40.36 29.2 36.4C29.2 32.44 32.42 29.2 36.39 29.2Z" fill="#FF632E"/>
<path d="M100.67 30.4C96.51 30.4 93.06 29.03 90.32 26.29C87.61 23.55 86.25 20.12 86.25 15.98C86.25 11.85 87.61 8.43001 90.32 5.72001C93.03 2.96001 96.48 1.57001 100.67 1.57001C103.17 1.57001 105.48 2.16001 107.62 3.35001C109.75 4.53001 111.42 6.13001 112.63 8.13001L106.51 11.64C105.98 10.67 105.2 9.90001 104.16 9.33001C103.12 8.76001 101.96 8.48001 100.67 8.48001C98.48 8.48001 96.69 9.18001 95.3 10.57C93.96 11.97 93.29 13.77 93.29 15.98C93.29 18.24 93.96 20.06 95.3 21.43C96.67 22.8 98.46 23.48 100.67 23.48C101.96 23.48 103.12 23.2 104.16 22.63C105.2 22.06 105.98 21.28 106.51 20.28L112.63 23.83C111.42 25.86 109.76 27.46 107.63 28.63C105.52 29.82 103.2 30.4 100.67 30.4Z" fill="white"/>
<path d="M121.79 29.8101H115.24V0.990051H121.79V29.8101Z" fill="white"/>
<path d="M135.14 30.36C132.19 30.36 129.7 29.36 127.68 27.36C125.63 25.36 124.6 22.89 124.6 19.94C124.6 17.04 125.62 14.58 127.68 12.56C129.76 10.53 132.25 9.52002 135.14 9.52002C138.09 9.52002 140.57 10.53 142.6 12.56C144.65 14.59 145.68 17.05 145.68 19.94C145.68 22.89 144.65 25.36 142.6 27.36C140.6 29.37 138.11 30.36 135.14 30.36ZM135.14 24.05C136.3 24.05 137.25 23.67 138 22.91C138.75 22.15 139.13 21.16 139.13 19.95C139.13 18.74 138.76 17.75 138 16.99C137.25 16.23 136.3 15.84 135.14 15.84C134.01 15.84 133.07 16.23 132.32 17.01C131.57 17.79 131.2 18.77 131.2 19.95C131.2 21.13 131.57 22.11 132.32 22.89C133.07 23.66 134.01 24.05 135.14 24.05Z" fill="white"/>
<path d="M158.12 30.36C155.12 30.36 152.62 29.36 150.62 27.36C148.62 25.36 147.62 22.89 147.62 19.94C147.62 16.99 148.62 14.52 150.62 12.52C152.62 10.52 155.12 9.52002 158.12 9.52002C160.07 9.52002 161.84 9.97002 163.43 10.88C165.02 11.79 166.25 13.03 167.12 14.61L161.51 17.85C160.8 16.56 159.66 15.92 158.07 15.92C156.96 15.92 156.04 16.29 155.31 17.04C154.57 17.79 154.2 18.76 154.2 19.94C154.2 21.12 154.57 22.09 155.31 22.84C156.05 23.59 156.97 23.97 158.07 23.97C159.68 23.97 160.82 23.31 161.51 21.99L167.12 25.23C166.25 26.81 165.02 28.06 163.43 28.98C161.83 29.9 160.07 30.36 158.12 30.36Z" fill="white"/>
<path d="M181.81 19.94L188.72 29.81H181.38L175.77 21.4V29.81H169.22V2.17004H175.77V18.32L180.86 10.07H188.44L181.81 19.94Z" fill="white"/>
<path d="M210.52 20.81L213.12 10.07H220.07L214.03 29.81H207.63L204.79 19.78L201.95 29.81H195.55L189.51 10.07H196.46L199.07 20.81L202.03 10.07H207.56L210.52 20.81Z" fill="white"/>
<path d="M228.37 7.35002C227.63 8.09002 226.75 8.46002 225.72 8.46002C224.69 8.46002 223.8 8.09002 223.03 7.35002C222.29 6.59002 221.92 5.69002 221.92 4.66002C221.92 3.63002 222.29 2.75002 223.03 2.01002C223.79 1.27002 224.69 0.900024 225.72 0.900024C226.75 0.900024 227.63 1.27002 228.37 2.01002C229.13 2.75002 229.51 3.63002 229.51 4.66002C229.51 5.69002 229.13 6.58002 228.37 7.35002ZM229 29.81H222.45V10.07H229V29.81Z" fill="white"/>
<path d="M238.95 15.8301C238.95 16.1701 239.23 16.4601 239.8 16.6801C240.37 16.9001 241.23 17.1501 242.39 17.4101C243.18 17.5701 243.91 17.7701 244.58 18.0201C245.25 18.2701 245.92 18.6301 246.59 19.0901C247.26 19.5501 247.79 20.1801 248.17 20.9901C248.55 21.8001 248.74 22.7101 248.74 23.7301C248.74 26.0201 247.9 27.6901 246.21 28.7401C244.5 29.8201 242.5 30.3601 240.21 30.3601C235.79 30.3601 232.84 28.8001 231.36 25.6601L237.09 22.7801C237.59 24.2301 238.62 24.9501 240.17 24.9501C241.36 24.9501 241.95 24.5901 241.95 23.8801C241.95 23.5401 241.68 23.2601 241.14 23.0301C240.6 22.8101 239.74 22.5501 238.55 22.2601C237.76 22.1001 237.05 21.8901 236.4 21.6101C235.75 21.3301 235.1 20.9701 234.43 20.5201C233.76 20.0701 233.24 19.4701 232.87 18.7201C232.5 17.9701 232.32 17.1101 232.32 16.1301C232.32 14.0201 233.1 12.3901 234.65 11.2301C236.2 10.0701 238.07 9.49005 240.26 9.49005C244.13 9.49005 246.84 11.0201 248.4 14.0701L242.87 16.5601C242.29 15.4301 241.47 14.8601 240.42 14.8601C239.44 14.8901 238.95 15.2001 238.95 15.8301Z" fill="white"/>
<path d="M270.69 22.35H257.07C257.73 23.96 259.2 24.76 261.49 24.76C262.89 24.76 264.08 24.3 265.08 23.38L269.82 26.7C267.9 29.15 265.07 30.37 261.33 30.37C257.99 30.37 255.31 29.4 253.28 27.45C251.28 25.48 250.28 22.99 250.28 19.99C250.28 17.02 251.27 14.53 253.24 12.53C255.22 10.53 257.73 9.53003 260.78 9.53003C263.73 9.53003 266.16 10.52 268.08 12.49C270 14.44 270.96 16.91 270.96 19.91C270.97 20.82 270.88 21.64 270.69 22.35ZM256.99 17.81H264.57C264.07 15.97 262.83 15.05 260.86 15.05C258.84 15.05 257.55 15.97 256.99 17.81Z" fill="white"/>
<path d="M97.4 70.456C94.968 70.456 92.878 69.886 91.13 68.746C89.4073 67.5807 88.204 65.9847 87.52 63.958L89.8 62.628C90.2813 64.3 91.168 65.592 92.46 66.504C93.7773 67.416 95.4367 67.872 97.438 67.872C99.3887 67.872 100.921 67.4413 102.036 66.58C103.151 65.7187 103.708 64.5533 103.708 63.084C103.708 61.6907 103.201 60.6393 102.188 59.93C101.2 59.2207 99.528 58.486 97.172 57.726C94.36 56.7887 92.536 56.054 91.7 55.522C89.6733 54.306 88.66 52.5453 88.66 50.24C88.66 47.9853 89.4453 46.212 91.016 44.92C92.5613 43.6027 94.4993 42.944 96.83 42.944C98.8313 42.944 100.605 43.476 102.15 44.54C103.695 45.5787 104.848 46.9593 105.608 48.682L103.366 49.936C102.15 46.9973 99.9713 45.528 96.83 45.528C95.158 45.528 93.8153 45.946 92.802 46.782C91.814 47.5927 91.32 48.7073 91.32 50.126C91.32 51.4687 91.776 52.4567 92.688 53.09C93.6253 53.7487 95.1327 54.42 97.21 55.104L99.262 55.826C99.6927 55.9527 100.301 56.1807 101.086 56.51C101.947 56.8393 102.543 57.118 102.872 57.346C104.215 58.1567 105.063 58.904 105.418 59.588C106.051 60.6013 106.368 61.7413 106.368 63.008C106.368 65.2627 105.545 67.074 103.898 68.442C102.251 69.7847 100.085 70.456 97.4 70.456ZM121.604 50.544C124.441 50.544 126.708 51.5447 128.406 53.546C130.154 55.522 131.028 57.8653 131.028 60.576C131.028 60.7027 131.002 61.0953 130.952 61.754H114.27C114.523 63.654 115.334 65.174 116.702 66.314C118.07 67.454 119.78 68.024 121.832 68.024C124.72 68.024 126.759 66.9473 127.95 64.794L130.154 66.086C129.318 67.454 128.165 68.5307 126.696 69.316C125.252 70.076 123.618 70.456 121.794 70.456C118.804 70.456 116.372 69.5187 114.498 67.644C112.623 65.7693 111.686 63.388 111.686 60.5C111.686 57.6373 112.61 55.2687 114.46 53.394C116.309 51.494 118.69 50.544 121.604 50.544ZM121.604 52.976C119.628 52.976 117.968 53.5587 116.626 54.724C115.308 55.8893 114.523 57.422 114.27 59.322H128.444C128.165 57.2953 127.392 55.7373 126.126 54.648C124.808 53.5333 123.301 52.976 121.604 52.976ZM139.425 51V54.154C140.59 51.8487 142.592 50.696 145.429 50.696V53.128C143.605 53.128 142.148 53.66 141.059 54.724C139.97 55.7627 139.425 57.3333 139.425 59.436V70H136.917V51H139.425ZM157.796 67.378L164.446 51H167.106L159.316 70H156.276L148.486 51H151.146L157.796 67.378ZM175.115 45.148C175.115 45.6547 174.938 46.0853 174.583 46.44C174.229 46.7947 173.798 46.972 173.291 46.972C172.785 46.972 172.354 46.7947 171.999 46.44C171.645 46.0853 171.467 45.6547 171.467 45.148C171.467 44.6413 171.645 44.2107 171.999 43.856C172.354 43.5013 172.785 43.324 173.291 43.324C173.798 43.324 174.229 43.5013 174.583 43.856C174.938 44.2107 175.115 44.6413 175.115 45.148ZM174.545 70H172.037V51H174.545V70ZM190.621 70.456C187.759 70.456 185.377 69.506 183.477 67.606C181.577 65.6553 180.627 63.2867 180.627 60.5C180.627 57.688 181.577 55.332 183.477 53.432C185.377 51.5067 187.759 50.544 190.621 50.544C192.496 50.544 194.181 51 195.675 51.912C197.17 52.7987 198.259 54.002 198.943 55.522L196.891 56.7C196.385 55.56 195.561 54.6607 194.421 54.002C193.307 53.318 192.04 52.976 190.621 52.976C188.519 52.976 186.745 53.7107 185.301 55.18C183.857 56.624 183.135 58.3973 183.135 60.5C183.135 62.5773 183.857 64.3633 185.301 65.858C186.745 67.302 188.519 68.024 190.621 68.024C192.015 68.024 193.269 67.6947 194.383 67.036C195.523 66.3773 196.41 65.4653 197.043 64.3L199.133 65.516C198.348 67.036 197.195 68.2393 195.675 69.126C194.155 70.0127 192.471 70.456 190.621 70.456ZM213.227 50.544C216.064 50.544 218.331 51.5447 220.029 53.546C221.777 55.522 222.651 57.8653 222.651 60.576C222.651 60.7027 222.625 61.0953 222.575 61.754H205.893C206.146 63.654 206.957 65.174 208.325 66.314C209.693 67.454 211.403 68.024 213.455 68.024C216.343 68.024 218.382 66.9473 219.573 64.794L221.777 66.086C220.941 67.454 219.788 68.5307 218.319 69.316C216.875 70.076 215.241 70.456 213.417 70.456C210.427 70.456 207.995 69.5187 206.121 67.644C204.246 65.7693 203.309 63.388 203.309 60.5C203.309 57.6373 204.233 55.2687 206.083 53.394C207.932 51.494 210.313 50.544 213.227 50.544ZM213.227 52.976C211.251 52.976 209.591 53.5587 208.249 54.724C206.931 55.8893 206.146 57.422 205.893 59.322H220.067C219.788 57.2953 219.015 55.7373 217.749 54.648C216.431 53.5333 214.924 52.976 213.227 52.976Z" fill="white"/>
</svg>
